<svg xmlns="http://www.w3.org/2000/svg" viewBox="0 0 24 24" fill="none"><path fill-rule="evenodd" clip-rule="evenodd" d="M10.0227 1.4007L8.79568 0.0648697C10.6428 -0.179315 15.5167 0.133816 20.2349 3.33981C20.2962 3.78261 20.283 4.224 20.283 4.224L20.4064 4.29252C20.6318 4.60186 20.8906 5.18289 21.045 5.90236C21.199 6.6198 21.242 7.44246 21.0639 8.22586C20.8839 9.01814 20.5419 9.67267 20.2068 10.1515C19.8639 10.6416 19.5498 10.918 19.4503 10.9777L19.4188 10.9966C18.8363 11.1052 18.0317 11.5324 17.7048 12.6077C16.7485 13.2033 15.1325 13.8555 12.9357 13.8555C10.9887 13.8555 9.00676 13.292 7.52091 12.2065C6.04403 11.1277 5.05623 9.53549 5.05623 7.43746C5.05623 5.77323 5.80209 4.47145 6.75491 3.50957C7.71526 2.54009 9.02838 1.75585 9.78017 1.49843L9.96638 1.43467L9.9553 1.42517L10.0227 1.4007ZM18.1433 4.01832C17.7719 4.43372 17.4246 4.63302 17.3254 4.68707C15.1563 4.19171 14.3749 2.98694 14.3749 2.98694C16.4209 2.97339 18.2675 3.49585 19.6185 4.37968C19.6185 4.37968 18.8872 4.12522 18.1433 4.01832Z" fill="#3164FA"/><path d="M8.06682 1.62802C3.46582 2.72639 0 6.93748 0 12.0032C0 18.5722 5.55252 24 12.4019 24C17.5165 24 21.7739 20.8728 24 16.6888C21.1041 17.3756 17.6589 16.1962 17.4886 13.5905C17.4939 13.5702 17.4991 13.5497 17.5043 13.5289C16.4236 14.0789 14.8815 14.5605 12.9357 14.5605C10.8647 14.5605 8.7307 13.9634 7.10505 12.7758C5.47045 11.5817 4.35123 9.78867 4.35123 7.43746C4.35123 5.54231 5.20605 4.07139 6.25404 3.01343L6.25442 3.01305C6.7432 2.52427 7.37513 2.05799 7.95603 1.69615C7.99313 1.67304 8.03007 1.65032 8.06682 1.62802Z" fill="#3164FA"/><path d="M4.46373 7.43746C4.46373 5.57917 5.30115 4.13524 6.33397 3.0926C6.93156 2.49501 7.75086 1.92788 8.42381 1.54953C8.42382 1.54953 8.42381 1.54953 8.42381 1.54953C7.75086 1.92788 6.93156 2.49501 6.33397 3.0926C5.30115 4.13524 4.46373 5.57917 4.46373 7.43746Z" fill="#3164FA"/><path d="M20.3696 11.0813C20.5812 11.1679 20.7105 11.2816 20.7782 11.3534C20.9409 11.5257 21.3475 12.0428 20.8595 12.8616C21.8761 12.6892 23.4639 11.655 23.5839 9.02642C23.6637 7.27903 22.7501 6.00396 21.5449 5.05622C21.6176 5.27566 21.6819 5.51009 21.7343 5.75441C21.9043 6.54656 21.9574 7.47591 21.7514 8.38211C21.5475 9.27943 21.1615 10.0169 20.7845 10.5557C20.6449 10.7552 20.5034 10.9318 20.3696 11.0813Z" fill="#3164FA"/></svg>
